<svg xmlns="http://www.w3.org/2000/svg" viewBox="0 0 159.14 90.63"><defs><style>.cls-1{fill:#394d37;}.cls-2{fill:#58ad53;}</style></defs><g id="Layer_2" data-name="Layer 2"><g id="OBJECTS"><path class="cls-1" d="M157.84,62.11a4.51,4.51,0,0,0-5.82-.43A251.88,251.88,0,0,1,129.62,76a4.24,4.24,0,0,1-5.41-1,4.14,4.14,0,0,1,1-6.2,246.53,246.53,0,0,0,21.94-14,4.86,4.86,0,0,0,1-6.76,4.7,4.7,0,0,0-6.53-1.38,237.91,237.91,0,0,1-21.19,13.5,4.2,4.2,0,0,1-4.39-7.15,234.2,234.2,0,0,0,21-13.4,4.39,4.39,0,0,0,1.32-5.52c-1.28-2.55-4.21-3.42-6.18-2A226.53,226.53,0,0,1,102.6,50.22c-4.81,2.54-6.53,8.89-3.75,14.37l1.06,2.1C51.19,87.82,20.46,75.08,9.45,25.2a41,41,0,0,0-2.58,4.09A16.34,16.34,0,0,0,5.43,42.08c2.9,9.48,8.94,22.77,21.19,31.39,0,0-18.14-6.83-26.14-25.94A40.41,40.41,0,0,0,3.61,70.6C14.34,94.05,37.06,84.91,37.06,84.91c19.75,8.91,43.6,5.8,70.38-3.37l1.47,2.92a11.08,11.08,0,0,0,15,4.94A256.24,256.24,0,0,0,157.25,69,4.54,4.54,0,0,0,157.84,62.11Z"/><path class="cls-2" d="M36.21,30.92s2.25,20.52,10.9,30.9C49,54.39,52,40.1,48.88,31.2,44.55,18.76,37.31,12,39.7,0,39.7,0,20,15.1,24.25,38.45c2.49,13.82,9.56,21.16,14.92,24.85C32.59,47.61,36.21,30.92,36.21,30.92Z"/><path class="cls-2" d="M76.81,48.81S63.32,58,59.26,67.83c5.9-1.39,17-4.62,22-10.07,7.08-7.62,9.13-15.18,18.4-17.94,0,0-17.81-8.16-32.56,3.41-8.74,6.85-11.25,14.5-11.85,19.6C63.82,52.44,76.81,48.81,76.81,48.81Z"/></g></g></svg>